<?xml version="1.0" encoding="UTF-8"?>
<svg id="Layer_3" data-name="Layer 3" xmlns="http://www.w3.org/2000/svg" viewBox="0 0 33 20">
  <defs>
    <style>
      .cls-1 {
        fill: #fff;
      }
    </style>
  </defs>
  <path class="cls-1" d="m27,.5v4.01c0,.27.22.5.5.5h5.01c.27,0,.5-.22.5-.5V.5c0-.27-.22-.5-.5-.5h-5.01c-.27,0-.5.22-.5.5Zm3.5,3.5h0c-.83,0-1.5-.67-1.5-1.5h0c0-.83.67-1.5,1.5-1.5h0c.83,0,1.5.67,1.5,1.5h0c0,.83-.67,1.5-1.5,1.5Z"/>
  <path class="cls-1" d="m19,12.5V.5c0-.28-.22-.5-.5-.5h-5c-.28,0-.5.23-.5.5v18.99c0,.28.23.5.5.5h19c.28,0,.5-.22.5-.5v-5c0-.28-.22-.5-.5-.5h-12c-.83,0-1.5-.67-1.5-1.5Z"/>
  <path class="cls-1" d="m12,7.59V.5c0-.28-.22-.5-.5-.5H.5C.22,0,0,.22,0,.5v6.01c0,.27.22.5.5.5h5c.28,0,.5.22.5.5s-.22.5-.5.5h-3.5c-.27,0-.5.22-.5.5v3.01c0,.27.22.5.5.5h3.5c.28,0,.5.22.5.5s-.22.5-.5.5H.5c-.27,0-.5.22-.5.5v6.01c0,.27.22.5.5.5h11c.28,0,.5-.22.5-.5v-7.09c0-.26-.1-.52-.29-.7l-.42-.42c-.19-.19-.29-.44-.29-.7v-1.17c0-.26.1-.52.29-.7l.42-.42c.19-.19.29-.44.29-.7Z"/>
  <path class="cls-1" d="m32.5,6h-5.01c-.27,0-.5.22-.5.5v1c0,.28-.22.5-.5.5s-.5-.22-.5-.5V.5c0-.27-.22-.5-.5-.5h-5.01c-.27,0-.5.22-.5.5v12.01c0,.27.22.5.5.5h12.01c.27,0,.5-.22.5-.5v-6.01c0-.27-.22-.5-.5-.5Z"/>
</svg>