<svg width="32" height="32" viewBox="0 0 32 32" fill="none" xmlns="http://www.w3.org/2000/svg">
  <style>
    path {
      fill: #0A0D18;
    }

    @media (prefers-color-scheme: dark) {
      path {
        fill: #ffffff;
      }
    }
  </style>
  <g clip-path="url(#clip0_1007_6868)">
    <path
      d="M17.2308 1.22831V11.0794C17.2308 11.7427 17.7714 12.3077 18.4595 12.3077H30.7713C31.4348 12.3077 32 11.7672 32 11.0794V1.22831C32 0.565024 31.4594 0 30.7713 0H18.4595C17.796 0 17.2308 0.540457 17.2308 1.22831ZM25.8318 9.8265C23.7921 9.8265 22.1456 8.18056 22.1456 6.14156C22.1456 4.10256 23.7921 2.45662 25.8318 2.45662C27.8715 2.45662 29.518 4.10256 29.518 6.14156C29.518 8.18056 27.8715 9.8265 25.8318 9.8265Z"
      fill="white" />
    <path
      d="M30.7948 14.7579H18.4719C17.8078 14.7579 17.2421 15.299 17.2421 15.9877V18.4473C17.2421 19.136 16.701 19.6772 16.0123 19.6772C15.3236 19.6772 14.7825 19.136 14.7825 18.4473V1.22982C14.7825 0.565719 14.2414 0 13.5526 0H1.22982C0.565719 0 0 0.541122 0 1.22982V30.7702C0 31.4343 0.541122 32 1.22982 32H30.7702C31.4343 32 32 31.4589 32 30.7702V15.9877C32 15.3236 31.4589 14.7579 30.7702 14.7579H30.7948Z"
      fill="white" />
  </g>
  <defs>
    <clipPath id="clip0_1007_6868">
      <rect width="32" height="32" />
    </clipPath>
  </defs>
</svg>