<svg width="32" height="32" viewBox="0 0 32 32" fill="none" xmlns="http://www.w3.org/2000/svg">
<rect width="32" height="32" fill="#0D0D0D"/>
<g clip-path="url(#clip0_1007_6868)">
<g clip-path="url(#clip1_1007_6868)">
<path d="M11.7 20.18V3.98H6.10001C4.98001 3.98 4.10001 4.86 4.10001 5.98V26.02C4.10001 27.1 4.98001 28.02 6.10001 28.02H27.9V20.22H11.7V20.18Z" fill="#F2F2F2"/>
<path d="M12.1 3.98V19.78H27.9V12.18H19.7V3.98H12.1Z" fill="#F2F2F2"/>
<path d="M25.9 4.38C26.78 4.38 27.5 5.1 27.5 5.98V11.38H20.5V4.38H25.9ZM25.9 3.98H20.1V11.78H27.9V5.98C27.9 4.86 27.02 3.98 25.9 3.98Z" fill="#F2F2F2"/>
</g>
</g>
<defs>
<clipPath id="clip0_1007_6868">
<rect width="24" height="24" fill="white" transform="translate(4 4)"/>
</clipPath>
<clipPath id="clip1_1007_6868">
<rect width="23.8" height="24.04" fill="white" transform="translate(4.10001 3.98)"/>
</clipPath>
</defs>
</svg>
